<?xml version="1.0" encoding="UTF-8" standalone="no"?>
<svg
   xmlns:osb="http://www.openswatchbook.org/uri/2009/osb"
   xmlns:dc="http://purl.org/dc/elements/1.1/"
   xmlns:cc="http://creativecommons.org/ns#"
   xmlns:rdf="http://www.w3.org/1999/02/22-rdf-syntax-ns#"
   xmlns:svg="http://www.w3.org/2000/svg"
   xmlns="http://www.w3.org/2000/svg"
   xmlns:sodipodi="http://sodipodi.sourceforge.net/DTD/sodipodi-0.dtd"
   xmlns:inkscape="http://www.inkscape.org/namespaces/inkscape"
   height="16"
   id="svg7384"
   style="enable-background:new"
   version="1.1"
   width="16"
   sodipodi:docname="application-exit-symbolic.svg"
   inkscape:version="0.92.4 5da689c313, 2019-01-14">
  <sodipodi:namedview
     pagecolor="#ffffff"
     bordercolor="#666666"
     borderopacity="1"
     objecttolerance="10"
     gridtolerance="10"
     guidetolerance="10"
     inkscape:pageopacity="0"
     inkscape:pageshadow="2"
     inkscape:window-width="2560"
     inkscape:window-height="1376"
     id="namedview23"
     showgrid="false"
     inkscape:zoom="16"
     inkscape:cx="-2.4110553"
     inkscape:cy="9.6271324"
     inkscape:window-x="0"
     inkscape:window-y="27"
     inkscape:window-maximized="1"
     inkscape:current-layer="layer12">
    <inkscape:grid
       type="xygrid"
       id="grid830"
       color="#ee0000"
       opacity="0.28627451" />
  </sodipodi:namedview>
  <metadata
     id="metadata90">
    <rdf:RDF>
      <cc:Work
         rdf:about="">
        <dc:format>image/svg+xml</dc:format>
        <dc:type
           rdf:resource="http://purl.org/dc/dcmitype/StillImage" />
        <dc:title>Pop Symbolic Icon Theme</dc:title>
        <cc:license
           rdf:resource="http://creativecommons.org/licenses/by-sa/4.0/" />
      </cc:Work>
      <cc:License
         rdf:about="http://creativecommons.org/licenses/by-sa/4.0/">
        <cc:permits
           rdf:resource="http://creativecommons.org/ns#Reproduction" />
        <cc:permits
           rdf:resource="http://creativecommons.org/ns#Distribution" />
        <cc:requires
           rdf:resource="http://creativecommons.org/ns#Notice" />
        <cc:requires
           rdf:resource="http://creativecommons.org/ns#Attribution" />
        <cc:permits
           rdf:resource="http://creativecommons.org/ns#DerivativeWorks" />
        <cc:requires
           rdf:resource="http://creativecommons.org/ns#ShareAlike" />
      </cc:License>
    </rdf:RDF>
  </metadata>
  <title
     id="title8473">Pop Symbolic Icon Theme</title>
  <defs
     id="defs7386">
    <linearGradient
       id="linearGradient6882"
       osb:paint="solid">
      <stop
         id="stop6884"
         offset="0"
         style="stop-color:#555555;stop-opacity:1;" />
    </linearGradient>
    <linearGradient
       id="linearGradient5606"
       osb:paint="solid">
      <stop
         id="stop5608"
         offset="0"
         style="stop-color:#000000;stop-opacity:1;" />
    </linearGradient>
    <filter
       id="filter7554"
       style="color-interpolation-filters:sRGB">
      <feBlend
         id="feBlend7556"
         in2="BackgroundImage"
         mode="darken" />
    </filter>
  </defs>
  <g
     id="layer9"
     style="display:inline"
     transform="translate(-825.0002,15)" />
  <g
     id="layer10"
     style="display:inline;filter:url(#filter7554)"
     transform="translate(-825.0002,15)" />
  <g
     id="layer1"
     style="display:inline"
     transform="translate(-584,-602)" />
  <g
     id="layer14"
     style="display:inline"
     transform="translate(-825.0002,15)" />
  <g
     id="layer15"
     style="display:inline"
     transform="translate(-825.0002,15)" />
  <g
     id="g71291"
     style="display:inline"
     transform="translate(-825.0002,15)" />
  <g
     id="layer2"
     style="display:inline"
     transform="translate(-584,-452)" />
  <g
     id="layer3"
     transform="translate(-584,-712)" />
  <g
     id="layer12"
     style="display:inline"
     transform="translate(-825.0002,15)">
    <path
       d="m 834.0002,-13.99986 c -1.108,-2e-5 -2,0.892 -2,2 v 2 c 0,0.5522847 0.44772,1 1,1 0.55,9.4e-6 0.99678,-0.4441451 1,-0.99414 1e-5,-0.002 1e-5,-0.004 0,-0.006 v -2 l 4.00002,-1.4e-4 v 10 L 834.0002,-2 v -2 c 0,-0.5522847 -0.44772,-1 -1,-1 -0.55,-9.4e-6 -0.99678,0.4441451 -1,0.99414 -10e-6,0.002 -10e-6,0.004 0,0.006 v 2 c 1e-5,1.108 0.892,2.00003877981 2,2 L 838.00022,0 c 1.108,-3.8779806e-5 2,-0.892 2,-2 v -10 c 0,-1.108 -0.892,-1.99998 -2,-2 z"
       id="path5675"
       style="opacity:1;fill:#4c5263;fill-opacity:1;stroke:none;stroke-width:4;stroke-miterlimit:4;stroke-dasharray:none;stroke-opacity:1"
       inkscape:connector-curvature="0"
       sodipodi:nodetypes="csscccccccsccccsssscc" />
    <path
       d="m 829.69358,-11.28711 a 0.98000002,0.98000002 0 0 1 0.98047,0.98047 0.98000002,0.98000002 0 0 1 -0.28906,0.69141 l 0.002,0.002 -1.63477,1.63476 L 835.21311,-8 a 1,1 0 0 1 1,1 1,1 0 0 1 -1,1 l -6.46094,0.0215 1.625,1.62305 0.01,0.01 a 0.98000002,0.98000002 0 0 1 0.28711,0.69336 0.98000002,0.98000002 0 0 1 -0.98047,0.98046 0.98000002,0.98000002 0 0 1 -0.69141,-0.2871 L 825.00022,-7 l 3.97656,-3.97461 0.0137,-0.0156 a 0.98000002,0.98000002 0 0 1 0.0117,-0.01 0.98000002,0.98000002 0 0 1 0.69141,-0.28711 z"
       id="path5677"
       style="fill:#4c5263;fill-opacity:1;fill-rule:nonzero;stroke:none"
       inkscape:connector-curvature="0" />
  </g>
</svg>
